# xmcd
#
# Track frame offsets: 
#        150
#        15997
#        33162
#        48565
#        68367
#        76500
#        88750
#        96657
#        105642
#        119677
#        137365
#        141725
#        171477
#        191900
#        219950
#        242185
#        260545
#
# Disc length: 3837 seconds
#
# Revision: 0
# Processed by: cddbd v1.5.2PL0 Copyright (c) Steve Scherf et al.
# Submitted via: ExactAudioCopy v1.0b3
#
DISCID=f00efb11
DTITLE=Paul Franklin - Looking Back Disc 2
DYEAR=2003
DGENRE=Instrumental
TTITLE0=My Baby Thinks He's A Train
TTITLE1=The Haunted
TTITLE2=San Francisco Nights
TTITLE3=Laser Dance
TTITLE4=Over The Limit
TTITLE5=Nothin' To It
TTITLE6=We All Remember You
TTITLE7=Classical Duet
TTITLE8=We Three Kings
TTITLE9=What Child Is This
TTITLE10=South African Groove
TTITLE11=We All Remember Wes
TTITLE12=My Mama Told Me So
TTITLE13=Spain
TTITLE14=Shaker Song
TTITLE15=Got To Find My Own Place
TTITLE16=Theme From Love Is Not Enough
EXTD=
EXTT0=
EXTT1=
EXTT2=
EXTT3=
EXTT4=
EXTT5=
EXTT6=
EXTT7=
EXTT8=
EXTT9=
EXTT10=
EXTT11=
EXTT12=
EXTT13=
EXTT14=
EXTT15=
EXTT16=
PLAYORDER=
